# xmcd CD database file
#
# Track frame offsets:
#	150
#	26110
#	56617
#	90435
#	107040
#	135922
#	165415
#	194012
#	213117
#	243402
#
# Disc length: 3645 seconds
#
# Revision: 0
# Processed by: cddbd v1.5.2PL0 Copyright (c) Steve Scherf et al.
# Submitted via: CDex 1.70beta2
#
DISCID=7e0e3b0a
DTITLE=Michel Bisceglia - The Night And The Music
DYEAR=2002
DGENRE=Jazz
TTITLE0=Our Love Is Here To Stay
TTITLE1=I Loves You, Porgy
TTITLE2=Night And Day
TTITLE3=What Is This Thing Called Love
TTITLE4=They Can't Take That Away From Me
TTITLE5=Easy To Love
TTITLE6=Someone To Watch Over Me
TTITLE7=Nice Work If You Can Get It
TTITLE8=I Love You
TTITLE9=Summertime
EXTD=YEAR: 2002
EXTT0=
EXTT1=
EXTT2=
EXTT3=
EXTT4=
EXTT5=
EXTT6=
EXTT7=
EXTT8=
EXTT9=
PLAYORDER=
